<svg xmlns="http://www.w3.org/2000/svg" width="39.129" height="168.011" viewBox="0 0 10.353 44.453"><path d="M1.881 4.043S1.407 3.407.066 2.886c0 0 1.06-.227 1.759.126 0 0-.03-.851-1.375-1.344 0 0 2.139-.393 3.314 1.093 0 0 .974-1.088.112-2.695 0 0 1.776.363 1.51 3.79 0 0 .746.244 1.588-.925 0 0-.092 1.56-1.044 2.856 0 0 1.004-.237 1.851.609 0 0-1.413-.096-2.138.217l-4.098-.44z" stroke="#000" stroke-width=".132" stroke-linecap="round" stroke-linejoin="round"/><path d="M5.633 19.543s2.413 2.156 3.702 6.353c0 0-.995-.326-1.783-.294 0 0 1.215 1.162 1.317 2.107.101.945.675 2.598.838 3.001 0 0-1.446-.454-1.607-.745 0 0 .517 1.751 1.23 3.004.713 1.253 1.023 4.538 1.023 4.538s-.842-.71-1.386-.952c0 0 1.244 1.374 1.112 3.56a43.27 43.27 0 01-.513 4.338s-.155-.949-1.209-2.4C7.303 40.6 4.996 19.571 4.996 19.571z"/></svg>
