<?xml version="1.0" encoding="UTF-8" standalone="no"?>
<svg
   xmlns:dc="http://purl.org/dc/elements/1.1/"
   xmlns:cc="http://creativecommons.org/ns#"
   xmlns:rdf="http://www.w3.org/1999/02/22-rdf-syntax-ns#"
   xmlns:svg="http://www.w3.org/2000/svg"
   xmlns="http://www.w3.org/2000/svg"
   xmlns:sodipodi="http://sodipodi.sourceforge.net/DTD/sodipodi-0.dtd"
   xmlns:inkscape="http://www.inkscape.org/namespaces/inkscape"
   width="10.353mm"
   height="44.452999mm"
   viewBox="0 0 10.352999 44.453"
   version="1.1"
   id="svg8"
   sodipodi:docname="0_1.svg"
   inkscape:version="1.0.2-2 (e86c870879, 2021-01-15)">
  <sodipodi:namedview
     pagecolor="#ffffff"
     bordercolor="#666666"
     borderopacity="1"
     objecttolerance="10"
     gridtolerance="10"
     guidetolerance="10"
     inkscape:pageopacity="0"
     inkscape:pageshadow="2"
     inkscape:window-width="1920"
     inkscape:window-height="1001"
     id="namedview8"
     showgrid="false"
     inkscape:zoom="3.2589146"
     inkscape:cx="24.369988"
     inkscape:cy="104.30499"
     inkscape:window-x="-9"
     inkscape:window-y="-9"
     inkscape:window-maximized="1"
     inkscape:current-layer="svg8"
     inkscape:document-rotation="0" />
  <defs
     id="defs2" />
  <metadata
     id="metadata5">
    <rdf:RDF>
      <cc:Work
         rdf:about="">
        <dc:format>image/svg+xml</dc:format>
        <dc:type
           rdf:resource="http://purl.org/dc/dcmitype/StillImage" />
        <dc:title />
      </cc:Work>
    </rdf:RDF>
  </metadata>
  <path
     style="fill:#174e38;fill-opacity:1;stroke:#174e38;stroke-width:0.132292;stroke-linecap:round;stroke-linejoin:round;stroke-opacity:1"
     d="m 1.8813582,4.042805 c 0,0 -0.474672,-0.6357228 -1.81512004,-1.1571489 0,0 1.06013804,-0.2268923 1.75831404,0.1261478 0,0 -0.02925,-0.8512046 -1.37455504,-1.3442857 0,0 2.13890904,-0.3922305 3.31424404,1.0929999 0,0 0.974191,-1.0878074 0.111466,-2.69455844 0,0 1.776157,0.3626385 1.510081,3.78936654 0,0 0.745947,0.2445072 1.588116,-0.9242756 0,0 -0.09215,1.5598825 -1.043647,2.8558327 0,0 1.003443,-0.236603 1.850696,0.6088408 0,0 -1.413291,-0.09622 -2.138119,0.217292 l -4.097347,-0.439321 z"
     id="path881" />
  <path
     style="fill:#174e38;fill-opacity:1;stroke:none;stroke-width:0.132;stroke-linecap:round;stroke-linejoin:round"
     d="m 5.6325902,19.542529 c 0,0 2.413597,2.156157 3.702782,6.353137 0,0 -0.995058,-0.325982 -1.783095,-0.294023 0,0 1.21491,1.162291 1.316326,2.10718 0.101417,0.944889 0.675549,2.597864 0.838063,3.00139 0,0 -1.445411,-0.454118 -1.606577,-0.74503 0,0 0.516537,1.750866 1.229849,3.003798 0.7133118,1.252932 1.0229528,4.538062 1.0229528,4.538062 0,0 -0.8419798,-0.710763 -1.3854988,-0.952044 0,0 1.2432848,1.374251 1.1117758,3.560875 -0.1315088,2.186621 -0.5131628,4.337309 -0.5131628,4.337309 0,0 -0.155374,-0.949122 -1.20894,-2.400717 -1.053585,-1.451597 -3.361431,-22.480421 -3.361431,-22.480421 z"
     id="path864" />
</svg>
