<?xml version="1.0" encoding="UTF-8" standalone="no"?>
<svg
   xmlns:dc="http://purl.org/dc/elements/1.1/"
   xmlns:cc="http://creativecommons.org/ns#"
   xmlns:rdf="http://www.w3.org/1999/02/22-rdf-syntax-ns#"
   xmlns:svg="http://www.w3.org/2000/svg"
   xmlns="http://www.w3.org/2000/svg"
   xmlns:sodipodi="http://sodipodi.sourceforge.net/DTD/sodipodi-0.dtd"
   xmlns:inkscape="http://www.inkscape.org/namespaces/inkscape"
   width="19.777mm"
   height="47.820999mm"
   viewBox="0 0 19.777001 47.821003"
   version="1.1"
   id="svg8"
   sodipodi:docname="0_2.svg"
   inkscape:version="1.0.2-2 (e86c870879, 2021-01-15)">
  <sodipodi:namedview
     pagecolor="#ffffff"
     bordercolor="#666666"
     borderopacity="1"
     objecttolerance="10"
     gridtolerance="10"
     guidetolerance="10"
     inkscape:pageopacity="0"
     inkscape:pageshadow="2"
     inkscape:window-width="1920"
     inkscape:window-height="1001"
     id="namedview8"
     showgrid="false"
     inkscape:zoom="2.1421033"
     inkscape:cx="54.673588"
     inkscape:cy="144.42246"
     inkscape:window-x="-9"
     inkscape:window-y="-9"
     inkscape:window-maximized="1"
     inkscape:current-layer="svg8"
     inkscape:document-rotation="0" />
  <defs
     id="defs2" />
  <metadata
     id="metadata5">
    <rdf:RDF>
      <cc:Work
         rdf:about="">
        <dc:format>image/svg+xml</dc:format>
        <dc:type
           rdf:resource="http://purl.org/dc/dcmitype/StillImage" />
        <dc:title />
      </cc:Work>
    </rdf:RDF>
  </metadata>
  <path
     style="fill:#174e38;stroke:#174e38;stroke-width:0.0901917;stroke-linecap:round;stroke-linejoin:round;fill-opacity:1;stroke-opacity:1"
     d="m 7.4826397,4.8403527 c 0,0 -0.237743,-1.1452736 -0.940012,-1.3083911 C 5.8403617,3.3688442 3.9417747,4.1055185 2.8029887,3.9833446 1.6642007,3.8611723 0.52105375,3.8803238 0.04517175,2.3748847 c 0,0 1.34753895,0.9392808 2.39189095,0.242431 1.04435,-0.696851 2.822877,-1.77455305 4.950409,-1.251917 2.127533,0.522638 2.8653163,2.0424742 2.8653163,2.0424742 0,0 1.267761,-1.4135792 -0.01598,-3.36287015 0,0 1.434843,0.9310919 1.81193,1.75883295 0.377087,0.82774 0.20611,2.6668775 0.693681,3.2640733 0,0 1.039992,-0.5555246 1.733738,-1.7038884 0,0 -0.430642,3.2021957 -1.578675,3.7326263 0,0 1.718979,0.6270127 2.635675,0.5410317 0,0 -2.175477,1.0319369 -3.37621,0.6249348 C 10.490849,7.1057581 7.5549907,7.0832603 7.4826397,4.8403527 Z"
     id="path883" />
  <path
     style="fill:#174e38;stroke:none;stroke-width:0.132;stroke-linecap:round;stroke-linejoin:round;fill-opacity:1"
     d="m 10.59459,19.03432 c 0,0 4.130845,5.67624 6.202553,5.048764 -0.216485,0.68135 -0.841939,0.976987 -1.341445,1.043597 1.745686,2.722097 3.449874,6.172112 4.121911,9.962395 0,0 -1.330317,-1.756428 -2.548912,-2.372986 0,0 0.331192,0.732496 0.365311,2.254569 0.246841,1.355393 1.081219,3.94933 2.382913,5.110373 -0.74723,0.06463 -1.367906,-0.03258 -1.735942,-0.385598 0.500695,2.234518 1.006205,3.696409 0.971602,6.27709 0,0 -0.980154,-1.168857 -2.204214,-1.856854 0,0 -1.006544,1.749971 1.034807,3.703876 0,0 -4.915452,0.193004 -7.116465,-3.748925 C 7.4150147,38.139507 10.59459,19.03432 10.59459,19.03432 Z"
     id="path896" />
</svg>
