<?xml version="1.0" encoding="UTF-8" standalone="no"?>
<svg
   xmlns:dc="http://purl.org/dc/elements/1.1/"
   xmlns:cc="http://creativecommons.org/ns#"
   xmlns:rdf="http://www.w3.org/1999/02/22-rdf-syntax-ns#"
   xmlns:svg="http://www.w3.org/2000/svg"
   xmlns="http://www.w3.org/2000/svg"
   xmlns:sodipodi="http://sodipodi.sourceforge.net/DTD/sodipodi-0.dtd"
   xmlns:inkscape="http://www.inkscape.org/namespaces/inkscape"
   width="68.829002"
   height="94.356003"
   viewBox="0 0 18.211006 24.965027"
   version="1.1"
   id="svg8"
   inkscape:version="1.0.2-2 (e86c870879, 2021-01-15)"
   sodipodi:docname="1_2.svg">
  <defs
     id="defs2" />
  <sodipodi:namedview
     id="base"
     pagecolor="#ffffff"
     bordercolor="#666666"
     borderopacity="1.0"
     inkscape:pageopacity="0.0"
     inkscape:pageshadow="2"
     inkscape:zoom="1.8949222"
     inkscape:cx="14.396386"
     inkscape:cy="72.218843"
     inkscape:document-units="mm"
     inkscape:current-layer="layer1"
     inkscape:document-rotation="0"
     showgrid="false"
     units="px"
     inkscape:window-width="1346"
     inkscape:window-height="991"
     inkscape:window-x="556"
     inkscape:window-y="0"
     inkscape:window-maximized="0"
     inkscape:snap-global="false"
     height="183.549mm" />
  <metadata
     id="metadata5">
    <rdf:RDF>
      <cc:Work
         rdf:about="">
        <dc:format>image/svg+xml</dc:format>
        <dc:type
           rdf:resource="http://purl.org/dc/dcmitype/StillImage" />
        <dc:title />
      </cc:Work>
    </rdf:RDF>
  </metadata>
  <g
     inkscape:label="Capa 1"
     inkscape:groupmode="layer"
     id="layer1">
    <path
       id="path831-9-9"
       style="fill:#3ec68f;fill-opacity:1;stroke:#3ec68f;stroke-width:0.132381;stroke-linecap:round;stroke-linejoin:round;stroke-opacity:1"
       d="M 4.4830281,0.06529289 C 4.5591343,2.2820959 4.8964184,21.337498 4.8964184,21.337498 0.52510265,22.142991 -0.60580708,22.923504 0.41733009,23.158006 1.3807319,23.378816 8.7129943,23.786903 8.7574891,23.186985 8.9872576,21.981386 9.2487916,4.6656427 9.1600279,1.823186 c 0,0 1.7991041,0.025226 2.7810861,0.8290095 1.834086,1.5012641 2.073154,20.1844515 2.073154,20.1844545 -5.0040014,1.209602 -4.6618608,1.684921 -3.573246,1.882608 1.095436,0.198919 7.230037,0.383681 7.419845,-0.05744 0.484744,-1.227373 0.18508,-22.1037744 0.258887,-24.37400173 z"
       sodipodi:nodetypes="ccsccscsccc" />
  </g>
  <g
     inkscape:groupmode="layer"
     id="layer2"
     inkscape:label="Layer 1"
     style="display:none">
    <path
       id="path831"
       style="fill:#3ec68f;fill-opacity:1;stroke:#3ec68f;stroke-width:0.132292;stroke-linecap:round;stroke-linejoin:round;stroke-opacity:1"
       d="M 4.482399,0.06633576 C 3.9047041,4.4367107 2.6213111,5.2899778 2.6687781,8.3542539 2.7044381,10.656449 3.5839451,11.94877 4.89581,16.0173 c -4.37153463,0.804373 -5.50250063,1.583801 -4.47931263,1.817976 0.96344973,0.220504 8.29607843,0.628023 8.34057643,0.02894 0.124192,-0.650703 -2.067726,-7.221422 -2.100807,-9.0024434 -0.03567,-1.9202005 0.951149,-2.5239463 2.503366,-7.0399878 0,0 1.9922582,-0.1652144 2.7812252,0.827857 1.182714,1.4886806 -0.278713,4.2872631 -0.322143,7.1121012 -0.03027,1.969101 0.891235,4.789563 2.395397,7.752625 -5.0042532,1.20792 -4.6620952,1.682578 -3.573426,1.879989 1.095492,0.198643 7.230401,0.383148 7.420219,-0.05736 0.239084,-0.604492 -2.098509,-6.282491 -1.977308,-9.4958974 0.07787,-2.0645469 2.198795,-8.4035863 2.236207,-9.55255184 z"
       sodipodi:nodetypes="cscscscsscscscc" />
  </g>
</svg>
