<?xml version="1.0" encoding="UTF-8" standalone="no"?>
<svg
   xmlns:dc="http://purl.org/dc/elements/1.1/"
   xmlns:cc="http://creativecommons.org/ns#"
   xmlns:rdf="http://www.w3.org/1999/02/22-rdf-syntax-ns#"
   xmlns:svg="http://www.w3.org/2000/svg"
   xmlns="http://www.w3.org/2000/svg"
   xmlns:sodipodi="http://sodipodi.sourceforge.net/DTD/sodipodi-0.dtd"
   xmlns:inkscape="http://www.inkscape.org/namespaces/inkscape"
   width="79.626999"
   height="28.316"
   viewBox="0 0 21.067974 7.4919418"
   version="1.1"
   id="svg8"
   inkscape:version="1.0.2-2 (e86c870879, 2021-01-15)"
   sodipodi:docname="5_0.svg">
  <defs
     id="defs2" />
  <sodipodi:namedview
     id="base"
     pagecolor="#ffffff"
     bordercolor="#666666"
     borderopacity="1.0"
     inkscape:pageopacity="0.0"
     inkscape:pageshadow="2"
     inkscape:zoom="10.687327"
     inkscape:cx="26.936927"
     inkscape:cy="9.0723068"
     inkscape:document-units="mm"
     inkscape:current-layer="layer1"
     inkscape:document-rotation="0"
     showgrid="false"
     units="px"
     inkscape:window-width="1920"
     inkscape:window-height="1001"
     inkscape:window-x="-9"
     inkscape:window-y="-9"
     inkscape:window-maximized="1"
     inkscape:snap-global="true"
     height="183.549mm" />
  <metadata
     id="metadata5">
    <rdf:RDF>
      <cc:Work
         rdf:about="">
        <dc:format>image/svg+xml</dc:format>
        <dc:type
           rdf:resource="http://purl.org/dc/dcmitype/StillImage" />
        <dc:title />
      </cc:Work>
    </rdf:RDF>
  </metadata>
  <g
     inkscape:label="Capa 1"
     inkscape:groupmode="layer"
     id="layer1">
    <path
       style="fill:#2fa173;fill-opacity:1;stroke:#2fa173;stroke-width:0.265392;stroke-linejoin:round;stroke-opacity:1"
       d="M 12.097414,7.3591844 C 19.778351,7.3013394 20.935283,3.912057 20.935283,3.912057 14.812928,-2.1636945 11.16838,0.91043239 11.16838,0.91043239 c 0,0 3.034617,3.62697731 0.929034,6.44875201 z"
       id="path972"
       sodipodi:nodetypes="cccc" />
    <path
       id="circle873-4"
       style="fill:#000000;stroke:none;stroke-width:0.123335;stroke-linecap:round;stroke-linejoin:round;stroke-miterlimit:4;stroke-dasharray:none"
       d="M 1.1590774,4.9865927e-5 A 1.1808219,1.1808479 0 0 0 -1.2950735e-7,1.1808569 1.1808219,1.1808479 0 0 0 0.07854617,1.6040869 C 0.65065176,1.1886296 1.3480101,0.81358147 2.1362574,0.48684217 A 1.1808219,1.1808479 0 0 0 1.1807809,4.9865927e-5 a 1.1808219,1.1808479 0 0 0 -0.021704,0 z" />
    <ellipse
       style="fill:#000000;stroke:none;stroke-width:0.123335;stroke-linecap:round;stroke-linejoin:round;stroke-miterlimit:4;stroke-dasharray:none"
       id="path894-2"
       cx="5.5538383"
       cy="3.1638448"
       rx="1.1808219"
       ry="1.1808479" />
    <path
       id="path1202"
       style="fill:#42c892;fill-opacity:1;stroke:none;stroke-width:0.183383;stroke-linejoin:round"
       sodipodi:type="inkscape:offset"
       inkscape:radius="-0.74092615"
       inkscape:original="M 17.779297 6.6386719 C 16.620887 6.6449341 15.990234 7.1757812 15.990234 7.1757812 C 15.990234 7.1757812 18.087765 9.6810632 16.632812 11.630859 C 21.94032 11.590889 22.740234 9.25 22.740234 9.25 C 20.624969 7.150882 18.937707 6.6324097 17.779297 6.6386719 z "
       transform="matrix(1.4471835,0,0,1.4472154,-11.973304,-9.4738695)"
       d="m 17.783203,7.3789062 c -0.506924,0.00274 -0.505924,0.1002138 -0.714844,0.1972657 0.194688,0.2986233 0.288362,0.3411946 0.478516,0.8242187 0.259168,0.6583314 0.29643,1.5069052 0.123047,2.3652344 1.777677,-0.15726 2.993824,-0.545077 3.58789,-0.9511719 C 21.497136,9.650855 21.586,9.5262644 21.705078,9.3945312 19.978333,7.8598452 18.625405,7.3743534 17.783203,7.3789062 Z" />
  </g>
</svg>
