<?xml version="1.0" encoding="UTF-8" standalone="no"?>
<svg
   xmlns:dc="http://purl.org/dc/elements/1.1/"
   xmlns:cc="http://creativecommons.org/ns#"
   xmlns:rdf="http://www.w3.org/1999/02/22-rdf-syntax-ns#"
   xmlns:svg="http://www.w3.org/2000/svg"
   xmlns="http://www.w3.org/2000/svg"
   xmlns:sodipodi="http://sodipodi.sourceforge.net/DTD/sodipodi-0.dtd"
   xmlns:inkscape="http://www.inkscape.org/namespaces/inkscape"
   width="21.555mm"
   height="39.827999mm"
   viewBox="0 0 21.554999 39.828"
   version="1.1"
   id="svg8"
   inkscape:version="1.0.2-2 (e86c870879, 2021-01-15)"
   sodipodi:docname="base.svg">
  <defs
     id="defs2" />
  <sodipodi:namedview
     id="base"
     pagecolor="#ffffff"
     bordercolor="#666666"
     borderopacity="1.0"
     inkscape:pageopacity="0.0"
     inkscape:pageshadow="2"
     inkscape:zoom="3.7317149"
     inkscape:cx="25.461881"
     inkscape:cy="70.952665"
     inkscape:document-units="mm"
     inkscape:current-layer="layer1"
     inkscape:document-rotation="0"
     showgrid="false"
     units="mm"
     inkscape:window-width="1920"
     inkscape:window-height="1001"
     inkscape:window-x="-9"
     inkscape:window-y="-9"
     inkscape:window-maximized="1"
     inkscape:snap-global="false"
     height="183.549mm" />
  <metadata
     id="metadata5">
    <rdf:RDF>
      <cc:Work
         rdf:about="">
        <dc:format>image/svg+xml</dc:format>
        <dc:type
           rdf:resource="http://purl.org/dc/dcmitype/StillImage" />
        <dc:title />
      </cc:Work>
    </rdf:RDF>
  </metadata>
  <g
     inkscape:label="Capa 1"
     inkscape:groupmode="layer"
     id="layer1">
    <path
       id="path845"
       style="fill:#3ec68f;stroke:#3ec68f;stroke-width:0.132292;stroke-linecap:round;stroke-linejoin:round;fill-opacity:1;stroke-opacity:1"
       d="m 21.480058,39.761895 c 0.07421,-2.277925 -0.34258,-5.07591 -0.749308,-9.305891 -0.406731,-4.229985 -2.166276,-14.154176 -2.166276,-14.154176 0,0 0.813462,-4.311444 1.667598,-7.5246051 C 21.086202,5.564061 19.662472,1.0899085 15.188453,0.27644995 14.349573,0.12392654 13.49337,0.06028949 12.656308,0.08318008 9.0259103,0.18245822 5.1580633,1.2154262 3.1437101,2.8023939 -1.7775606,6.8128952 -0.07054767,10.123881 2.8093641,11.739833 l 0.599443,0.358117 c 0.76173,0.362228 1.8272222,0.76169 2.6112092,1.058334 4.2564937,1.610566 3.393476,9.778581 2.875794,15.242997 -0.515404,5.440363 -1.15984,8.037677 -1.053166,11.140406"
       sodipodi:nodetypes="csccsscccssc" />
    <path
       id="path918"
       style="fill:#000000;fill-opacity:1;stroke:none;stroke-width:0.755906;stroke-linecap:round;stroke-linejoin:round;stroke-miterlimit:4;stroke-dasharray:none;stroke-opacity:1"
       d="m 12.68702,45.906336 c 0.853069,-0.159124 8.719338,-0.901325 17.21923,-5.304774 0.452284,-0.23431 1.010846,0.692571 4.417969,1.113282 -2.891343,-1.988413 -4.090056,-2.503542 -5.09961,-6.466797 -0.86324,2.036451 0.313509,4.317358 -0.07617,4.484375 -9.521483,4.080665 -18.197878,5.071062 -18.736395,4.819162 1.064402,0.64466 1.629731,0.954455 2.274976,1.354752 z"
       transform="scale(0.26458333)"
       sodipodi:nodetypes="csccccc" />
    <path
       id="rect920"
       style="fill:#000000;fill-opacity:1;stroke:none;stroke-width:0.755906;stroke-linecap:round;stroke-linejoin:round;stroke-miterlimit:4;stroke-dasharray:none;stroke-opacity:1"
       d="M 49.326172 83.673828 C 49.050775 83.684076 48.796004 83.892433 48.730469 84.160156 C 48.727706 84.170871 47.23195 89.938908 45.740234 96.761719 C 44.247211 103.59052 42.746528 111.42721 42.712891 115.73242 C 42.680224 119.94284 43.151052 123.62055 44.152344 126.37109 C 45.154123 129.12299 46.762971 131.04392 48.996094 131.30078 C 51.161873 131.5499 53.635128 130.5338 55.625 128.63672 C 57.615964 126.73859 59.122987 123.912 59.205078 120.47266 C 59.363845 113.82195 57.824219 96.164062 57.824219 96.164062 C 57.797804 95.830848 57.471913 95.554377 57.138672 95.580078 C 56.805457 95.606497 56.528987 95.934337 56.554688 96.267578 C 56.554688 96.267578 58.080389 114.04765 57.927734 120.44336 C 57.85409 123.52843 56.520182 126.02312 54.753906 127.70703 C 52.988655 129.38997 50.780613 130.22034 49.136719 130.03125 C 47.555421 129.84937 46.2691 128.46139 45.349609 125.93555 C 44.430595 123.41101 43.950296 119.84757 43.982422 115.74023 C 44.013694 111.72932 45.506734 103.8461 46.994141 97.042969 C 48.481581 90.239702 49.962891 84.470703 49.962891 84.470703 C 50.043104 84.149182 49.831542 83.780768 49.511719 83.695312 L 49.505859 83.695312 C 49.451283 83.680194 49.392555 83.674017 49.335938 83.673828 C 49.333821 83.673798 49.33023 83.67381 49.328125 83.673828 L 49.326172 83.673828 z "
       transform="scale(0.26458333)" />
  </g>
</svg>
