<?xml version="1.0" encoding="UTF-8" standalone="no"?>
<svg
   xmlns:dc="http://purl.org/dc/elements/1.1/"
   xmlns:cc="http://creativecommons.org/ns#"
   xmlns:rdf="http://www.w3.org/1999/02/22-rdf-syntax-ns#"
   xmlns:svg="http://www.w3.org/2000/svg"
   xmlns="http://www.w3.org/2000/svg"
   xmlns:sodipodi="http://sodipodi.sourceforge.net/DTD/sodipodi-0.dtd"
   xmlns:inkscape="http://www.inkscape.org/namespaces/inkscape"
   width="21.555mm"
   height="39.827999mm"
   viewBox="0 0 21.554999 39.828"
   version="1.1"
   id="svg8"
   inkscape:version="1.0.2-2 (e86c870879, 2021-01-15)"
   sodipodi:docname="full.svg">
  <defs
     id="defs2" />
  <sodipodi:namedview
     id="base"
     pagecolor="#ffffff"
     bordercolor="#666666"
     borderopacity="1.0"
     inkscape:pageopacity="0.0"
     inkscape:pageshadow="2"
     inkscape:zoom="2.7319278"
     inkscape:cx="16.601759"
     inkscape:cy="138.12268"
     inkscape:document-units="mm"
     inkscape:current-layer="layer1"
     inkscape:document-rotation="0"
     showgrid="false"
     units="mm"
     inkscape:window-width="1920"
     inkscape:window-height="1001"
     inkscape:window-x="-9"
     inkscape:window-y="-9"
     inkscape:window-maximized="1"
     inkscape:snap-global="true"
     height="183.549mm" />
  <metadata
     id="metadata5">
    <rdf:RDF>
      <cc:Work
         rdf:about="">
        <dc:format>image/svg+xml</dc:format>
        <dc:type
           rdf:resource="http://purl.org/dc/dcmitype/StillImage" />
        <dc:title />
      </cc:Work>
    </rdf:RDF>
  </metadata>
  <g
     inkscape:label="Capa 1"
     inkscape:groupmode="layer"
     id="layer1">
    <rect
       style="fill:#ff0000;stroke-width:0.205394;stroke-linejoin:round"
       id="rect869"
       width="26.458334"
       height="68.791664"
       x="0"
       y="0" />
    <path
       id="path845"
       style="opacity:1;fill:#000000;stroke:#000000;stroke-width:0.132292;stroke-linecap:round;stroke-linejoin:round"
       d="m 21.573602,44.190576 c 0.07421,-2.277925 -0.34258,-5.07591 -0.749308,-9.305891 C 20.417563,30.6547 18.658018,20.73051 18.658018,20.73051 c 0,0 0.813462,-4.311444 1.667598,-7.524605 0.85413,-3.2131616 -0.5696,-7.6873144 -5.043619,-8.5007724 -0.83888,-0.152524 -1.695083,-0.216161 -2.532145,-0.19327 -3.6303973,0.09928 -7.4982443,1.132246 -9.5125977,2.719214 -4.9212707,4.0105004 -3.21425773,7.3214864 -0.334346,8.9374384 l 0.599443,0.358117 c 0.76173,0.362228 1.8272224,0.76169 2.6112094,1.058334 4.2564933,1.610566 3.393476,9.77858 2.875794,15.242996 -0.515404,5.440363 -1.15984,8.037677 -1.053166,11.140406"
       sodipodi:nodetypes="csccsscccssc" />
    <path
       id="path918"
       style="fill:#ffffff;fill-opacity:1;stroke:none;stroke-width:0.2;stroke-linecap:round;stroke-linejoin:round;stroke-miterlimit:4;stroke-dasharray:none;stroke-opacity:1"
       d="m 3.4503182,16.574733 c 0.2257079,-0.0421 2.3069915,-0.238476 4.5559215,-1.403555 0.119667,-0.062 0.267453,0.183243 1.168921,0.294556 -0.765002,-0.526101 -1.082161,-0.662396 -1.349272,-1.711007 -0.228399,0.538811 0.08295,1.142301 -0.02015,1.186491 -2.519226,1.079676 -4.8148553,1.341719 -4.9573379,1.27507 0.281623,0.170566 0.4311997,0.252533 0.6019204,0.358445 z"
       sodipodi:nodetypes="csccccc" />
    <path
       id="rect920"
       style="fill:#ffffff;fill-opacity:1;stroke:none;stroke-width:0.2;stroke-linecap:round;stroke-linejoin:round;stroke-miterlimit:4;stroke-dasharray:none;stroke-opacity:1"
       d="m 13.144427,26.567381 c -0.07287,0.0027 -0.140273,0.05784 -0.157613,0.128675 -7.31e-4,0.0028 -0.396483,1.528961 -0.791166,3.334163 -0.395029,1.806787 -0.792085,3.880244 -0.800985,5.019331 -0.0086,1.114007 0.11593,2.087068 0.380856,2.814815 0.265054,0.728106 0.690728,1.236353 1.281575,1.304313 0.573029,0.06591 1.227411,-0.20293 1.753898,-0.704865 0.526776,-0.502214 0.925509,-1.250083 0.947229,-2.160075 0.04201,-1.759667 -0.365352,-6.431649 -0.365352,-6.431649 -0.007,-0.08816 -0.09321,-0.161313 -0.181385,-0.154513 -0.08816,0.007 -0.161312,0.09373 -0.154512,0.181901 0,0 0.403675,4.704311 0.363285,6.396509 -0.01948,0.816258 -0.372415,1.476312 -0.839742,1.921846 -0.467056,0.445278 -1.051267,0.66498 -1.486214,0.61495 -0.418385,-0.04812 -0.758724,-0.415359 -1.002006,-1.083654 -0.243156,-0.667951 -0.370235,-1.610778 -0.361735,-2.697512 0.0083,-1.06122 0.403308,-3.146988 0.796851,-4.946983 0.393551,-1.800031 0.785481,-3.326412 0.785481,-3.326412 0.02122,-0.08507 -0.03475,-0.182545 -0.119372,-0.205155 h -0.0016 c -0.01444,-0.004 -0.02998,-0.0056 -0.04496,-0.0057 -5.6e-4,-8e-6 -0.0015,-5e-6 -0.0021,0 z" />
    <path
       style="fill:#000000;stroke:#000000;stroke-width:0.0896181;stroke-linecap:round;stroke-linejoin:round"
       d="m 14.361002,5.0102306 c 0,0 -0.234728,-1.145281 -0.928088,-1.308399 -0.693358,-0.163119 -2.56786,0.57356 -3.6922003,0.451386 -1.124342,-0.122174 -2.252988,-0.103022 -2.722833,-1.6084704 0,0 1.330445,0.9392864 2.361549,0.242432 1.0311003,-0.696855 2.7870673,-1.774563 4.8876103,-1.251924 2.100545,0.522641 2.828969,2.0424864 2.828969,2.0424864 0,0 1.251679,-1.4135874 -0.01577,-3.36289034 0,0 1.416641,0.93109794 1.788945,1.75884394 0.372303,0.827745 0.203494,2.6668934 0.684881,3.2640924 0,0 1.0268,-0.555528 1.711745,-1.703898 0,0 -0.425179,3.202214 -1.558649,3.732648 0,0 1.697173,0.627017 2.60224,0.541035 0,0 -2.147881,1.031943 -3.333381,0.624939 -1.64496,-1.156862 -4.543576,-1.17936 -4.615008,-3.422281 z"
       id="path883"
       sodipodi:nodetypes="csscssccscccccc" />
    <path
       style="fill:#000000;stroke:none;stroke-width:0.13116;stroke-linecap:round;stroke-linejoin:round"
       d="m 17.433476,19.204281 c 0,0 4.078443,5.676274 6.123871,5.048794 -0.213739,0.681354 -0.83126,0.976993 -1.324428,1.043602 1.72354,2.722115 3.406111,6.17215 4.069622,9.962456 0,0 -1.31344,-1.756438 -2.516578,-2.373 0,0 0.326991,0.732499 0.360678,2.254582 0.243709,1.355401 1.067503,3.949354 2.352684,5.110403 -0.737751,0.06463 -1.350554,-0.03258 -1.71392,-0.3856 0.494343,2.234533 0.99344,3.696431 0.959277,6.277129 0,0 -0.967721,-1.168865 -2.176253,-1.856867 0,0 -0.993777,1.749982 1.02168,3.703899 0,0 -4.853098,0.193005 -7.026191,-3.748947 -3.269685,-5.93115 -0.130442,-25.036451 -0.130442,-25.036451 z"
       id="path896"
       sodipodi:nodetypes="cccccccccccsc" />
    <path
       id="path831-9"
       style="fill:#000000;stroke:#000000;stroke-width:0.132292;stroke-linecap:round;stroke-linejoin:round"
       d="m 7.9361918,43.968364 c 0.07611,2.213721 0.413411,21.242631 0.413411,21.242631 -4.371535,0.804373 -5.502501,1.583801 -4.479313,1.817976 0.96345,0.220504 8.2960792,0.628023 8.3405762,0.02894 0.22978,-1.203923 0.491327,-18.495593 0.402559,-21.334098 0,0 1.799195,0.02519 2.781226,0.827857 1.834179,1.499177 2.073259,20.15639 2.073259,20.156393 -5.004254,1.20792 -4.662096,1.682578 -3.573426,1.879989 1.095492,0.198643 7.230401,0.383148 7.420219,-0.05736 0.484767,-1.225669 0.185079,-22.073045 0.258899,-24.340116 z"
       sodipodi:nodetypes="ccsccscsccc" />
  </g>
</svg>
